# xmcd
#
# Track frame offsets:
#	150
#	14715
#	32909
#	48040
#	57438
#	75513
#	86828
#	106739
#	120023
#	132426
#	145969
#	159397
#	169203
#	180261
#	197379
#	206909
#	221505
#	242393
#	261007
#	272607
#	290357
#	304015
#	316938
#	329671
#	343791
#
# Disc length: 4693 seconds
#
# Revision: 2
# Processed by: cddbd v1.5.2PL0 Copyright (c) Steve Scherf et al.
# Submitted via: EasyCDDAExtractor 8.2.3.1
#
DISCID=5f125319
DTITLE=Dwight Yoakam - Dwightyoakamacoustic net
DYEAR=1999
DGENRE=Country
TTITLE0=Bury Me
TTITLE1=1 000 Miles
TTITLE2=Little Sister
TTITLE3=Please  Please Baby
TTITLE4=It Won't Hurt
TTITLE5=I'll Be Gone
TTITLE6=Johnson's Love
TTITLE7=Little Ways
TTITLE8=This Drinkin' Will Kill Me
TTITLE9=Nothing's Changed Here
TTITLE10=Throughout All Time
TTITLE11=Sad  Sad Music
TTITLE12=It Only Hurts When I Cry
TTITLE13=Buenas Noches From A Lonely Room
TTITLE14=The Distance Between You And Me
TTITLE15=A Thousand Miles From Nowhere
TTITLE16=Two Doors Down
TTITLE17=Readin'  Rightin'  Rt 23
TTITLE18=If There Was A Way
TTITLE19=Fast As You
TTITLE20=Home For Sale
TTITLE21=A Long Way  Home
TTITLE22=Lonesome Roads
TTITLE23=Things Change
TTITLE24=Guitars  Cadillacs
EXTD=\nYEAR: 2000  ID3G:   2
EXTT0=
EXTT1=
EXTT2=
EXTT3=
EXTT4=
EXTT5=
EXTT6=
EXTT7=
EXTT8=
EXTT9=
EXTT10=
EXTT11=
EXTT12=
EXTT13=
EXTT14=
EXTT15=
EXTT16=
EXTT17=
EXTT18=
EXTT19=
EXTT20=
EXTT21=
EXTT22=
EXTT23=
EXTT24=
PLAYORDER=
